<?xml version="1.0" encoding="UTF-8" standalone="no"?>
<svg
  xmlns="http://www.w3.org/2000/svg"
  width="30"
  height="30">
  <g
    id="g26"
    style="fill:white"
    transform="matrix(0.219978,0,0,0.219978,-0.0197978,-0.07259274)">
   <path
    class="st1"
    d="M 100.1,24.02 64.69,3.61 c 0,0 -5.61,-3.28 -14.56,-3.28 -9.32,0 -14.72,3.38 -14.72,3.38 l -32.8,18.77 49.9,28.68 v 57.96 L 85.35,90.37 c 0,0 5.87,-3.24 10.33,-10.94 3.93,-6.78 4.42,-13.34 4.42,-13.34 z m -53.4,9.44 c 0,0 7.32,-1.35 13.51,2.22 6.19,3.57 9.84,5.67 9.84,5.67 0,0 0.01,4.97 0.01,12.4 0,5.95 -5.04,12.12 -5.04,12.12 l 0.01,-21.83 z m 29.02,47.88 -10.69,6.13 v -5.75 l 8.32,-4.76 c 7.92,-5.71 9.23,-14.13 9.23,-17.05 L 82.55,34.05 59.86,20.99 c 0,0 -3.45,-2.26 -9.65,-2.26 -6.2,0 -9.58,2.09 -9.58,2.09 L 32.66,25.4 27.63,22.49 38.64,16.2 c 0,0 4.31,-2.39 11.53,-2.39 6.63,0 11.79,2.59 11.79,2.59 l 25.62,14.8 -0.03,28.22 c 0.18,4.34 -1.84,14.94 -11.83,21.92 z"
    id="path22"
    style="fill:white" />
   <path
    class="st1"
    d="M 0.09,41.25 35.07,61.32 35.04,67.3 15.14,55.89 2.62,63.01 35.02,81.68 35.04,87.44 0.33,67.47 c 0.09,2.34 2.21,9.55 6.27,15.13 4.12,5.65 8.82,8.05 8.82,8.05 L 47.5,109.12 V 54.04 L 0.12,26.83 Z"
    id="path24"
    style="fill:#white" />
  </g>
</svg>
